<?xml version="1.0" standalone="no"?>
<!DOCTYPE svg PUBLIC "-//W3C//DTD SVG 20010904//EN"
 "http://www.w3.org/TR/2001/REC-SVG-20010904/DTD/svg10.dtd">
<svg version="1.0" xmlns="http://www.w3.org/2000/svg"
 width="96.000000pt" height="96.000000pt" viewBox="0 0 96.000000 96.000000"
 preserveAspectRatio="xMidYMid meet">
<metadata>
Created by potrace 1.13, written by Peter Selinger 2001-2015
</metadata>
<g transform="translate(0.000000,96.000000) scale(0.100000,-0.100000)"
fill="#000000" stroke="none">
<path d="M785 930 c-21 -22 -36 -29 -51 -26 -14 4 -29 -3 -45 -20 -13 -15 -31
-29 -41 -33 -9 -3 -158 -146 -332 -318 -375 -369 -358 -337 -243 -451 40 -39
78 -72 84 -72 15 0 663 639 663 654 0 5 17 27 37 48 31 32 35 40 23 48 -12 8
-6 18 33 57 26 27 47 51 47 55 0 8 -124 88 -136 88 -6 0 -23 -14 -39 -30z
m-385 -501 l0 -112 -122 -118 -123 -118 -55 55 -55 54 175 175 c96 96 176 175
177 175 2 0 3 -50 3 -111z"/>
</g>
</svg>
